<svg width="31" height="36" viewBox="0 0 31 36" fill="none" xmlns="http://www.w3.org/2000/svg">
<path d="M13.2857 0C10.85 0 8.85714 1.99286 8.85714 4.42857H4.42857C1.99286 4.42857 0 6.42143 0 8.85714H31C31 6.42143 29.0071 4.42857 26.5714 4.42857H22.1429C22.1429 1.99286 20.15 0 17.7143 0H13.2857ZM4.42857 13.2857V34.5871C4.42857 35.0743 4.78286 35.4286 5.27 35.4286H25.7743C26.2614 35.4286 26.6157 35.0743 26.6157 34.5871V13.2857H22.1871V28.7857C22.1871 30.0257 21.2129 31 19.9729 31C18.7329 31 17.7586 30.0257 17.7586 28.7857V13.2857H13.33V28.7857C13.33 30.0257 12.3557 31 11.1157 31C9.87571 31 8.90143 30.0257 8.90143 28.7857V13.2857H4.47286H4.42857Z" fill="white"/>
</svg>
